<?xml version="1.0" encoding="utf-8"?>
<!-- Generator: Adobe Illustrator 22.0.1, SVG Export Plug-In . SVG Version: 6.00 Build 0)  -->
<svg version="1.1" id="Layer_1" xmlns="http://www.w3.org/2000/svg" xmlns:xlink="http://www.w3.org/1999/xlink" x="0px" y="0px"
	 viewBox="0 0 200 40" style="enable-background:new 0 0 200 40;" xml:space="preserve">
<style type="text/css">
	.st0{fill:#FFFFFF;}
</style>
<g>
	<path class="st0" d="M19.6,15.6L37.5,3v34h-9V22.2l-8.9,5.4l-8.9-5.4V37h-9V3L19.6,15.6z"/>
	<path class="st0" d="M130.4,18.7V20c0,9.4-7.6,17-17,17c-9.4,0-16.9-7.6-16.9-17c0-9.4,7.6-17,16.9-17c4.7,0,8.9,1.9,12,4.9
		l-6.3,6.3c-1.5-1.4-3.4-2.3-5.7-2.3c-4.3,0-8,3.4-8,8.1c0,4.7,3.9,8.1,8,8.1c2.7,0,5.2-1.3,6.6-3.4h-6.6v-6H130.4z"/>
	<path class="st0" d="M176.3,18.7V20c0,9.4-7.6,17-17,17c-9.4,0-17-7.6-17-17c0-9.4,7.6-17,17-17c4.7,0,8.9,1.9,12,4.9l-6.3,6.3
		c-1.4-1.4-3.4-2.3-5.7-2.3c-4.3,0-8,3.4-8,8.1c0,4.7,3.9,8.1,8,8.1c2.7,0,5.2-1.3,6.6-3.4h-6.6v-6H176.3z"/>
	<path class="st0" d="M189.3,3h8.9v34h-8.9V3z"/>
	<polygon class="st0" points="50.4,37 60.7,37 68.4,22.2 76.1,37 86.1,37 68.2,3 	"/>
</g>
</svg>
